<?xml version="1.0" standalone="no"?>
<!DOCTYPE svg PUBLIC "-//W3C//DTD SVG 20010904//EN"
 "http://www.w3.org/TR/2001/REC-SVG-20010904/DTD/svg10.dtd">
<svg version="1.0" xmlns="http://www.w3.org/2000/svg"
 width="114.000000pt" height="114.000000pt" viewBox="0 0 114.000000 114.000000"
 preserveAspectRatio="xMidYMid meet">
<metadata>
Created by potrace 1.14, written by Peter Selinger 2001-2017
</metadata>
<g transform="translate(0.000000,114.000000) scale(0.100000,-0.100000)"
fill="#000000" stroke="none">
<path d="M330 1103 c-129 -87 -254 -354 -315 -668 -14 -75 -16 -221 -3 -260
35 -106 126 -75 230 78 22 32 42 57 44 55 2 -2 -1 -21 -7 -42 -36 -131 -41
-204 -17 -233 16 -20 34 -16 72 18 27 23 39 28 53 21 20 -12 59 1 89 29 l21
20 -3 -28 c-3 -33 11 -53 38 -53 20 0 79 52 112 100 15 23 18 24 27 7 13 -22
35 -11 101 51 102 95 182 246 195 363 5 48 9 59 24 59 15 0 31 -25 34 -55 2
-20 -28 -111 -52 -160 -14 -27 -45 -78 -69 -112 -48 -68 -68 -110 -55 -117 13
-9 41 21 123 129 71 95 118 146 118 131 0 -4 -13 -35 -30 -70 -28 -60 -29 -69
-26 -172 3 -84 7 -109 17 -109 18 0 27 58 23 145 -3 59 1 79 26 134 31 67 39
113 26 134 -11 19 -23 15 -64 -23 l-39 -34 20 57 c24 72 19 138 -13 164 -14
11 -31 16 -42 12 -14 -4 -21 1 -29 24 -12 35 -54 56 -91 47 -24 -6 -25 -4 -32
51 -9 75 -31 112 -72 120 -18 3 -38 3 -44 -1 -6 -4 -22 3 -35 15 -16 15 -32
21 -49 18 -21 -4 -25 -1 -31 29 -16 85 -55 114 -115 85 -28 -14 -34 -14 -38
-2 -9 26 -51 60 -74 60 -13 0 -35 -8 -48 -17z m56 -41 c6 -4 17 -17 23 -30 10
-19 10 -27 -1 -41 -7 -10 -33 -45 -57 -77 -25 -32 -66 -99 -92 -149 -64 -122
-177 -411 -197 -504 -12 -56 -18 -69 -22 -50 -7 29 -5 150 4 199 32 177 72
302 142 445 57 117 100 175 149 200 34 17 36 17 51 7z m151 -50 c14 -9 33 -56
33 -80 -1 -9 -22 -41 -48 -69 l-47 -53 -2 92 c-1 76 1 94 15 105 20 14 32 16
49 5z m-98 -157 c-2 -82 -17 -150 -48 -220 -13 -27 -34 -85 -47 -127 -14 -43
-28 -78 -32 -78 -5 0 -18 -20 -30 -44 -25 -53 -48 -81 -120 -153 -30 -29 -58
-50 -63 -47 -25 15 1 106 99 349 68 171 115 263 180 352 54 74 63 69 61 -32z
m211 25 c0 -4 -7 -13 -15 -20 -13 -11 -15 -8 -15 13 0 19 4 25 15 21 8 -4 15
-10 15 -14z m-99 -118 c-41 -66 -93 -180 -125 -272 -30 -89 -66 -262 -66 -318
0 -29 -7 -46 -26 -66 -41 -40 -48 -36 -44 29 4 57 70 303 99 367 16 34 38 95
50 133 21 73 64 149 110 198 l26 29 3 -25 c2 -15 -10 -45 -27 -75z m224 74 c9
-14 19 -48 22 -77 5 -50 4 -53 -31 -85 -21 -19 -38 -34 -39 -34 -1 0 -2 50 -2
110 0 98 2 110 17 110 10 0 25 -11 33 -24z m-88 -158 c-5 -89 -9 -105 -49
-190 -25 -51 -62 -136 -83 -188 -28 -71 -49 -106 -81 -138 -50 -49 -76 -48
-45 2 88 141 159 357 177 531 7 78 16 102 48 127 20 16 21 16 30 -15 4 -18 6
-76 3 -129z m-121 -17 c-6 -57 -37 -181 -65 -262 -23 -67 -80 -187 -92 -195
-19 -11 21 186 58 291 29 79 91 215 99 215 3 0 3 -22 0 -49z m338 13 c17 -17
22 -54 7 -54 -5 0 -30 -28 -56 -62 -26 -35 -45 -54 -42 -43 17 60 23 92 26
142 1 18 12 27 43 32 4 0 14 -6 22 -15z m-110 -71 c-20 -139 -106 -342 -189
-445 -86 -109 -93 -51 -11 103 24 46 59 127 77 179 31 92 61 146 103 183 26
23 27 22 20 -20z m132 -65 c-12 -90 -132 -284 -197 -318 -18 -10 -18 -9 2 42
37 96 175 318 196 318 3 0 2 -19 -1 -42z"/>
</g>
</svg>
